<svg xmlns="http://www.w3.org/2000/svg" viewBox="0 0 50 50"><defs><style>.a{fill:#fff;}.b{fill:#494949;fill-rule:evenodd;}</style></defs><g transform="translate(0)"><rect class="a" width="50" height="50" transform="translate(0 0)"/><path class="b" d="M15.979,2.841a48.994,48.994,0,0,1,6.391.178,8.235,8.235,0,0,1,3.018.533,6.235,6.235,0,0,1,3.018,3.018,8.235,8.235,0,0,1,.533,3.018c0,1.6.178,2.13.178,6.391a48.994,48.994,0,0,1-.178,6.391,8.235,8.235,0,0,1-.533,3.018,6.235,6.235,0,0,1-3.018,3.018,8.235,8.235,0,0,1-3.018.533c-1.6,0-2.13.178-6.391.178a48.994,48.994,0,0,1-6.391-.178,8.235,8.235,0,0,1-3.018-.533,6.235,6.235,0,0,1-3.018-3.018,8.235,8.235,0,0,1-.533-3.018c0-1.6-.178-2.13-.178-6.391a48.994,48.994,0,0,1,.178-6.391,8.235,8.235,0,0,1,.533-3.018A6.376,6.376,0,0,1,4.794,4.794,3,3,0,0,1,6.569,3.551a8.235,8.235,0,0,1,3.018-.533,48.994,48.994,0,0,1,6.391-.178m0-2.841A52.458,52.458,0,0,0,9.41.178,10.961,10.961,0,0,0,5.5.888,6.95,6.95,0,0,0,2.663,2.663,6.95,6.95,0,0,0,.888,5.5,8.089,8.089,0,0,0,.178,9.41,52.458,52.458,0,0,0,0,15.979a52.458,52.458,0,0,0,.178,6.569,10.961,10.961,0,0,0,.71,3.906,6.95,6.95,0,0,0,1.775,2.841A6.95,6.95,0,0,0,5.5,31.07a10.961,10.961,0,0,0,3.906.71,52.458,52.458,0,0,0,6.569.178,52.458,52.458,0,0,0,6.569-.178,10.961,10.961,0,0,0,3.906-.71,7.449,7.449,0,0,0,4.616-4.616,10.961,10.961,0,0,0,.71-3.906c0-1.775.178-2.308.178-6.569A52.458,52.458,0,0,0,31.78,9.41,10.961,10.961,0,0,0,31.07,5.5a6.95,6.95,0,0,0-1.775-2.841A6.95,6.95,0,0,0,26.454.888a10.961,10.961,0,0,0-3.906-.71A52.458,52.458,0,0,0,15.979,0m0,7.812a8.035,8.035,0,0,0-8.167,8.167,8.167,8.167,0,1,0,8.167-8.167m0,13.493a5.231,5.231,0,0,1-5.326-5.326,5.231,5.231,0,0,1,5.326-5.326A5.231,5.231,0,0,1,21.3,15.979,5.231,5.231,0,0,1,15.979,21.3M24.5,5.5a1.953,1.953,0,1,0,1.953,1.953A1.97,1.97,0,0,0,24.5,5.5" transform="translate(8.571 8.571)"/></g></svg>