<svg xmlns="http://www.w3.org/2000/svg" viewBox="0 0 50 50"><defs><style>.a{fill:#fff;}.b{fill:#494949;}</style></defs><g transform="translate(0)"><rect class="a" width="50" height="50" transform="translate(0 0)"/><g transform="translate(10 11.429)"><path class="b" d="M35.938,16.648v.81c0,8.507-6.481,18.229-18.229,18.229a19.5,19.5,0,0,1-9.722-2.836h1.62a15.076,15.076,0,0,0,8.1-2.836,6.584,6.584,0,0,1-6.076-4.456h1.215a2.436,2.436,0,0,0,1.62-.405A5.812,5.812,0,0,1,9.2,19.079h0a7.51,7.51,0,0,0,2.836.81A6.924,6.924,0,0,1,9.2,14.623a7.631,7.631,0,0,1,.81-3.241,16.308,16.308,0,0,0,12.963,6.481v-1.62a6.4,6.4,0,0,1,6.481-6.481,6.708,6.708,0,0,1,4.861,2.025,12.131,12.131,0,0,0,4.051-1.62,8.014,8.014,0,0,1-2.836,4.051A6.534,6.534,0,0,0,39.179,13c-.81,1.62-2.025,2.431-3.241,3.646Zm0,0" transform="translate(-7.987 -9.761)"/></g></g></svg>